<svg width="20" height="22" viewBox="0 0 20 22" fill="none" xmlns="http://www.w3.org/2000/svg">
<path d="M14.3843 5.88462C14.3843 8.30617 12.4213 10.2692 9.9997 10.2692C7.57814 10.2692 5.61508 8.30617 5.61508 5.88462C5.61508 3.46306 7.57814 1.5 9.9997 1.5C12.4213 1.5 14.3843 3.46306 14.3843 5.88462Z" stroke="white" stroke-width="2"/>
<path d="M9.9997 20.5C14.343 20.5 16.8454 19.3797 18.0062 18.6586C18.5493 18.3212 18.8171 17.6999 18.7618 17.0563C18.6864 16.1773 18.3793 15.2994 18.0665 14.6031C17.656 13.6888 16.7056 13.1923 15.7033 13.1923H4.29607C3.29383 13.1923 2.34342 13.6888 1.93285 14.6031C1.62015 15.2994 1.31303 16.1773 1.23759 17.0563C1.18234 17.6999 1.45006 18.3212 1.99324 18.6586C3.15404 19.3797 5.65639 20.5 9.9997 20.5Z" stroke="white" stroke-width="2"/>
</svg>
